# xmcd CD database file
#
# Track frame offsets:
#	183
#	13643
#	26463
#	39170
#	53795
#	66695
#	82970
#	96895
#	109530
#	124080
#	138183
#	152055
#
# Disc length: 2251 seconds
#
# Revision: 0
# Processed by: cddbd v1.5.2PL0 Copyright (c) Steve Scherf et al.
# Submitted via: CDex 1.70beta2
#
DISCID=9108c90c
DTITLE=John Brack - Strong Feelings
DYEAR=1985
DGENRE=Country
TTITLE0=Crazy Outlaw
TTITLE1=Long Blond Hair
TTITLE2=Tragic Love
TTITLE3=Some Old Dreams
TTITLE4=I Love Texas
TTITLE5=Pick Up The Phone
TTITLE6=I Wanna Dance
TTITLE7=Why Couldn't You Talk
TTITLE8=Strong Feelings
TTITLE9=I've Been Dreaming
TTITLE10=Only Heartaches
TTITLE11=Loving You
EXTD=YEAR: 1985
EXTT0=
EXTT1=
EXTT2=
EXTT3=
EXTT4=
EXTT5=
EXTT6=
EXTT7=
EXTT8=
EXTT9=
EXTT10=
EXTT11=
PLAYORDER=
